<svg fill="none" height="44" viewBox="0 0 44 44" width="44" xmlns="http://www.w3.org/2000/svg"><g fill="#484848"><path d="m28.4 17.1c.7732 0 1.4-.6268 1.4-1.4s-.6268-1.4-1.4-1.4-1.4.6268-1.4 1.4.6268 1.4 1.4 1.4z"/><path d="m22.1 16.1c-3.3 0-5.9 2.7-5.9 5.9 0 3.3 2.7 5.9 5.9 5.9 3.3 0 5.9-2.7 5.9-5.9 0-3.3-2.6-5.9-5.9-5.9zm0 9.7c-2.1 0-3.8-1.7-3.8-3.8s1.7-3.8 3.8-3.8 3.8 1.7 3.8 3.8-1.7 3.8-3.8 3.8z"/><path d="m26.8 34h-9.6c-4 0-7.2-3.2-7.2-7.2v-9.6c0-4 3.2-7.2 7.2-7.2h9.6c4 0 7.2 3.2 7.2 7.2v9.6c0 4-3.2 7.2-7.2 7.2zm-9.6-21.7c-2.7 0-5 2.2-5 5v9.6c0 2.7 2.2 5 5 5h9.6c2.7 0 5-2.2 5-5v-9.7c0-2.7-2.2-5-5-5h-9.6z"/></g></svg>