<svg fill="none" height="44" viewBox="0 0 44 44" width="44" xmlns="http://www.w3.org/2000/svg"><g fill="#484848"><path d="m22.3027 10.0055c-6.6985-.19993-12.0973 5.0977-12.2972 11.4947-.19998 6.8969 5.0988 12.2944 11.6973 12.4943s12.2972-5.0976 12.2972-12.0945c0-6.397-5.0988-11.6946-11.6973-11.8945zm6.5985 13.9936c-.8998 1.2994-2.0996 2.2989-3.3993 3.1985-1.1997.7997-2.3994 1.4993-3.5991 2.199-.3.1999-.4999 0-.4999-.2998 0-.4998 0-.9996 0-1.4994 0-.0999 0-.1999 0-.2998-1.1998-.1999-2.2995-.3998-3.2993-.8996-1.2997-.5997-2.3994-1.3994-3.0993-2.5988-1.2997-2.199-1.1997-4.6979.4999-6.697.8998-1.1994 2.1995-1.8991 3.5992-2.2989 1.9995-.4998 3.9991-.5997 5.9986 0 2.6994.7996 4.299 2.6988 4.7989 5.4975.2 1.3993-.1999 2.5988-.9997 3.6983z"/><path d="m24.3029 19.0013c-.2 0-.4 0-.6 0 0 0-.1.2-.1.2999v2.3989c-.1-.0999-.1-.1999-.1-.1999-.4-.6997-.7-1.3994-1.1-2.099-.1-.1999-.3-.3999-.6-.2999-.1 0-.1 0-.2 0-.5 0-.5 0-.5.4998v2.9986c0 .2999 0 .3998.4.2999.3 0 .3 0 .3-.2999 0-.7996 0-1.4993 0-2.299 0-.0999 0-.0999 0-.1999.4.7997.9 1.5993 1.2 2.299.2.3998.5.5997.9.4998.2 0 .3-.1.3-.2999 0-1.0995 0-2.199 0-3.2985.2-.1999.1-.2999.1-.2999z"/><path d="m27.2021 22.1999c-.3 0-.7 0-1.1 0-.1 0-.1 0-.2 0 0-.3998 0-.6997 0-1.0995h1c.1 0 .2 0 .2-.1 0-.0999 0-.2998 0-.3998 0 0-.2-.0999-.3-.0999-.3 0-.6 0-1 0 0-.2999 0-.5998 0-.8996h1.2c.2 0 .2-.1.2-.2999s0-.2999-.2-.2999c-.6 0-1.1 0-1.7 0-.3 0-.3.1-.3.2999v3.1985c0 .2.1.2999.3.2999h1.7c.2 0 .3-.0999.3-.2999.2-.1999.2-.2998-.1-.2998z"/><path d="m18.9039 22.1999c-.3 0-.7 0-1.1 0 0-.1 0-.1999 0-.2999 0-.7996 0-1.5993 0-2.3989 0-.4998 0-.4998-.6-.4998-.1 0-.2 0-.2.2v3.2984c0 .2.1.2999.3.2999h1.6c.3 0 .2-.1999.2-.2999 0-.1999 0-.3998-.2-.2998z"/><path d="m20.4033 20.9005c0-.4998 0-.9996 0-1.3994 0-.4998 0-.4998-.5-.4998-.3 0-.3 0-.3.2v3.1985c0 .3998 0 .3998.4.3998h.1c.2 0 .3-.0999.3-.2999-.1-.4997 0-1.0995 0-1.5992z"/></g></svg>